<?xml version="1.0" encoding="UTF-8"?>
<svg version="1.1" xmlns="http://www.w3.org/2000/svg" width="30" height="30">
<path d="M0 0 C1.25554688 -0.00128906 2.51109375 -0.00257812 3.8046875 -0.00390625 C4.46178711 -0.00181152 5.11888672 0.0002832 5.79589844 0.00244141 C7.80411335 0.00779016 9.81210459 0.00249559 11.8203125 -0.00390625 C13.07585938 -0.00261719 14.33140625 -0.00132813 15.625 0 C16.78644531 0.00112793 17.94789062 0.00225586 19.14453125 0.00341797 C21.8125 0.1328125 21.8125 0.1328125 22.8125 1.1328125 C22.91073937 2.79710301 22.94223631 4.46563181 22.9375 6.1328125 C22.94136719 7.4940625 22.94136719 7.4940625 22.9453125 8.8828125 C22.8125 11.1328125 22.8125 11.1328125 21.8125 12.1328125 C19.66691173 12.22056855 17.51845579 12.23976469 15.37109375 12.23046875 C14.06591797 12.22724609 12.76074219 12.22402344 11.41601562 12.22070312 C10.0273431 12.21234651 8.63867123 12.20388155 7.25 12.1953125 C5.85742344 12.19029916 4.46484519 12.18573597 3.07226562 12.18164062 C-0.3476987 12.16980684 -3.76757844 12.1533213 -7.1875 12.1328125 C-7.21437279 10.32039198 -7.23383715 8.50786017 -7.25 6.6953125 C-7.26160156 5.68597656 -7.27320313 4.67664063 -7.28515625 3.63671875 C-7.0965789 -1.19840455 -4.18699787 0.00406617 0 0 Z " fill="#C7E0F4" transform="translate(7.1875,2.8671875)"/>
<path d="M0 0 C9.9 0 19.8 0 30 0 C29.67 0.99 29.34 1.98 29 3 C19.43 3 9.86 3 0 3 C0 2.01 0 1.02 0 0 Z " fill="#67AFE8" transform="translate(0,12)"/>
<path d="M0 0 C0 1.65 0 3.3 0 5 C-3.75 6.125 -3.75 6.125 -6 5 C-6 3.35 -6 1.7 -6 0 C-3.50907189 -1.24546405 -2.58919267 -0.7767578 0 0 Z " fill="#77B6E9" transform="translate(12,17)"/>
<path d="M0 0 C0.66 0 1.32 0 2 0 C2 0.66 2 1.32 2 2 C2.66 2.33 3.32 2.66 4 3 C4 3.99 4 4.98 4 6 C0.25 7.125 0.25 7.125 -2 6 C-2 4.68 -2 3.36 -2 2 C-1.34 2 -0.68 2 0 2 C0 1.34 0 0.68 0 0 Z " fill="#78B9E9" transform="translate(25,17)"/>
<path d="M0 0 C3.3 0 6.6 0 10 0 C10 0.66 10 1.32 10 2 C6.7 2.33 3.4 2.66 0 3 C0 2.01 0 1.02 0 0 Z " fill="#5AA7E7" transform="translate(0,12)"/>
<path d="M0 0 C1.32 0 2.64 0 4 0 C3.67 1.65 3.34 3.3 3 5 C2.01 4.67 1.02 4.34 0 4 C0 2.68 0 1.36 0 0 Z " fill="#3C9BE2" transform="translate(13,22)"/>
<path d="M0 0 C0.99 0 1.98 0 3 0 C3 0.66 3 1.32 3 2 C2.01 2 1.02 2 0 2 C0 1.34 0 0.68 0 0 Z " fill="#2888D2" transform="translate(1,19)"/>
<path d="M0 0 C0.99 0.495 0.99 0.495 2 1 C2 1.66 2 2.32 2 3 C1.34 3 0.68 3 0 3 C0 2.01 0 1.02 0 0 Z " fill="#2B86CF" transform="translate(18,16)"/>
</svg>
