<?xml version="1.0" encoding="UTF-8"?>
<svg version="1.1" xmlns="http://www.w3.org/2000/svg" width="30" height="31">
<path d="M0 0 C0.33 0.66 0.66 1.32 1 2 C1.99 2 2.98 2 4 2 C4 2.66 4 3.32 4 4 C4.66 4 5.32 4 6 4 C6 5.65 6 7.3 6 9 C6.928125 9.061875 7.85625 9.12375 8.8125 9.1875 C12 10 12 10 13.6875 12.125 C16.03037228 17.25700595 15.16859598 22.4363325 15 28 C10.71 28 6.42 28 2 28 C2 28.66 2 29.32 2 30 C-3.61 30 -9.22 30 -15 30 C-14 25 -14 25 -12 23 C-12.185625 22.236875 -12.37125 21.47375 -12.5625 20.6875 C-13 18 -13 18 -11.6875 15.3125 C-10 13 -10 13 -8 11 C-7.01 11 -6.02 11 -5 11 C-5 8.69 -5 6.38 -5 4 C-4.34 4 -3.68 4 -3 4 C-3 3.34 -3 2.68 -3 2 C-2.01 2 -1.02 2 0 2 C0 1.34 0 0.68 0 0 Z " fill="#5C6369" transform="translate(15,0)"/>
<path d="M0 0 C0.33 0.66 0.66 1.32 1 2 C1.99 2 2.98 2 4 2 C4 2.66 4 3.32 4 4 C4.66 4 5.32 4 6 4 C6 5.65 6 7.3 6 9 C6.928125 9.061875 7.85625 9.12375 8.8125 9.1875 C12 10 12 10 13.6875 12.125 C16.03037228 17.25700595 15.16859598 22.4363325 15 28 C10.71 28 6.42 28 2 28 C2 28.66 2 29.32 2 30 C-3.61 30 -9.22 30 -15 30 C-14 25 -14 25 -12 23 C-12.165 22.195625 -12.33 21.39125 -12.5 20.5625 C-13 18 -13 18 -11 15 C-10.67 16.98 -10.34 18.96 -10 21 C-6.37114676 21.15149298 -6.37114676 21.15149298 -3 20 C-3.875 26.875 -3.875 26.875 -5 28 C-3.35 28.33 -1.7 28.66 0 29 C-0.33 27.68 -0.66 26.36 -1 25 C0.98 25.66 2.96 26.32 5 27 C5 24.36 5 21.72 5 19 C6.32 18.67 7.64 18.34 9 18 C9 16.68 9 15.36 9 14 C9.66 14 10.32 14 11 14 C11 15.32 11 16.64 11 18 C11.99 18 12.98 18 14 18 C13.34 17.01 12.68 16.02 12 15 C12 14.01 12 13.02 12 12 C8.41672247 10.99782936 8.41672247 10.99782936 5 12 C5 9.69 5 7.38 5 5 C2.03 5 -0.94 5 -4 5 C-4 7.97 -4 10.94 -4 14 C-4.99 14.495 -4.99 14.495 -6 15 C-6 14.34 -6 13.68 -6 13 C-7.32 13.33 -8.64 13.66 -10 14 C-9.34 13.01 -8.68 12.02 -8 11 C-7.01 11 -6.02 11 -5 11 C-5 8.69 -5 6.38 -5 4 C-4.34 4 -3.68 4 -3 4 C-3 3.34 -3 2.68 -3 2 C-2.01 2 -1.02 2 0 2 C0 1.34 0 0.68 0 0 Z " fill="#363738" transform="translate(15,0)"/>
<path d="M0 0 C-0.33 1.32 -0.66 2.64 -1 4 C-2.32 4 -3.64 4 -5 4 C-5 4.66 -5 5.32 -5 6 C-2.69 6 -0.38 6 2 6 C2 6.33 2 6.66 2 7 C-0.31 7 -2.62 7 -5 7 C-5 7.66 -5 8.32 -5 9 C-3.02 9 -1.04 9 1 9 C1 9.33 1 9.66 1 10 C-0.98 10 -2.96 10 -5 10 C-5 10.66 -5 11.32 -5 12 C-6.65 11.67 -8.3 11.34 -10 11 C-10 11.99 -10 12.98 -10 14 C-11.98 14 -13.96 14 -16 14 C-15.34 11.36 -14.68 8.72 -14 6 C-15.32 6.33 -16.64 6.66 -18 7 C-18.66 6.67 -19.32 6.34 -20 6 C-20 5.34 -20 4.68 -20 4 C-15.38 3.67 -10.76 3.34 -6 3 C-6 2.01 -6 1.02 -6 0 C-3.50907189 -1.24546405 -2.58919267 -0.7767578 0 0 Z " fill="#868180" transform="translate(25,15)"/>
<path d="M0 0 C0.33 0.66 0.66 1.32 1 2 C1.99 2 2.98 2 4 2 C4 2.66 4 3.32 4 4 C4.66 4 5.32 4 6 4 C6 5.65 6 7.3 6 9 C6.94875 9.103125 7.8975 9.20625 8.875 9.3125 C12 10 12 10 14 13 C13.34 13.66 12.68 14.32 12 15 C12 14.01 12 13.02 12 12 C8.41672247 10.99782936 8.41672247 10.99782936 5 12 C5 9.69 5 7.38 5 5 C2.03 5 -0.94 5 -4 5 C-4 7.97 -4 10.94 -4 14 C-4.99 14.495 -4.99 14.495 -6 15 C-6 14.34 -6 13.68 -6 13 C-7.32 13.33 -8.64 13.66 -10 14 C-9.34 13.01 -8.68 12.02 -8 11 C-7.01 11 -6.02 11 -5 11 C-5 8.69 -5 6.38 -5 4 C-4.34 4 -3.68 4 -3 4 C-3 3.34 -3 2.68 -3 2 C-2.01 2 -1.02 2 0 2 C0 1.34 0 0.68 0 0 Z " fill="#323130" transform="translate(15,0)"/>
<path d="M0 0 C0.99 0.33 1.98 0.66 3 1 C3 1.99 3 2.98 3 4 C2.34 4 1.68 4 1 4 C1.33 5.32 1.66 6.64 2 8 C-1.3 8 -4.6 8 -8 8 C-8 6.35 -8 4.7 -8 3 C-3.25 2 -3.25 2 -1 2 C-0.67 1.34 -0.34 0.68 0 0 Z " fill="#716542" transform="translate(12,11)"/>
<path d="M0 0 C2.64 0 5.28 0 8 0 C8 0.33 8 0.66 8 1 C5.69 1 3.38 1 1 1 C1 1.99 1 2.98 1 4 C3.31 4 5.62 4 8 4 C7.67 5.32 7.34 6.64 7 8 C6.34 8 5.68 8 5 8 C5 8.66 5 9.32 5 10 C5.66 10 6.32 10 7 10 C7.33 10.99 7.66 11.98 8 13 C6.35 13 4.7 13 3 13 C2.67 12.01 2.34 11.02 2 10 C2.66 10 3.32 10 4 10 C4 9.34 4 8.68 4 8 C3.34 7.67 2.68 7.34 2 7 C1.67 7.33 1.34 7.66 1 8 C0.67 8 0.34 8 0 8 C0 5.36 0 2.72 0 0 Z " fill="#748291" transform="translate(11,5)"/>
<path d="M0 0 C1.32 0 2.64 0 4 0 C4 1.65 4 3.3 4 5 C1.69 5.33 -0.62 5.66 -3 6 C-2.42655063 3.13275314 -2.1385485 2.1385485 0 0 Z " fill="#89B0D0" transform="translate(5,23)"/>
<path d="M0 0 C-0.33 1.32 -0.66 2.64 -1 4 C-6.41538462 5.23076923 -6.41538462 5.23076923 -9.375 4.0625 C-9.91125 3.711875 -10.4475 3.36125 -11 3 C-9.35 3 -7.7 3 -6 3 C-6 2.01 -6 1.02 -6 0 C-3.50907189 -1.24546405 -2.58919267 -0.7767578 0 0 Z " fill="#A9AEB5" transform="translate(25,15)"/>
<path d="M0 0 C2.64 0 5.28 0 8 0 C7.67 1.32 7.34 2.64 7 4 C4.69 4.33 2.38 4.66 0 5 C0 3.35 0 1.7 0 0 Z " fill="#43454A" transform="translate(20,22)"/>
<path d="M0 0 C2.64 0 5.28 0 8 0 C8 0.33 8 0.66 8 1 C5.69 1 3.38 1 1 1 C1 1.66 1 2.32 1 3 C2.98 3 4.96 3 7 3 C7 3.33 7 3.66 7 4 C5.02 4 3.04 4 1 4 C1 4.66 1 5.32 1 6 C0.01 5.67 -0.98 5.34 -2 5 C-1.34 3.35 -0.68 1.7 0 0 Z " fill="#7A7E84" transform="translate(19,21)"/>
<path d="M0 0 C1.9375 0.75 1.9375 0.75 4 2 C4.75 4.125 4.75 4.125 5 6 C3.02 6 1.04 6 -1 6 C-0.67 4.02 -0.34 2.04 0 0 Z " fill="#79B2E2" transform="translate(10,23)"/>
<path d="M0 0 C2.375 0.625 2.375 0.625 5 2 C6.3125 5.125 6.3125 5.125 7 8 C6.01 8 5.02 8 4 8 C4 6.68 4 5.36 4 4 C2.35 3.67 0.7 3.34 -1 3 C-0.67 2.01 -0.34 1.02 0 0 Z " fill="#E3C96C" transform="translate(22,10)"/>
<path d="M0 0 C0.99 0 1.98 0 3 0 C3 0.66 3 1.32 3 2 C4.65 2 6.3 2 8 2 C5 4 5 4 3 4 C2.67 4.66 2.34 5.32 2 6 C2 5.34 2 4.68 2 4 C1.34 4 0.68 4 0 4 C0 2.68 0 1.36 0 0 Z " fill="#414242" transform="translate(16,11)"/>
<path d="M0 0 C0.99 0 1.98 0 3 0 C3 2.31 3 4.62 3 7 C2.01 6.34 1.02 5.68 0 5 C-0.1875 2.375 -0.1875 2.375 0 0 Z " fill="#E0E3E5" transform="translate(14,20)"/>
<path d="M0 0 C0.33 0.66 0.66 1.32 1 2 C1.66 2 2.32 2 3 2 C3.33 2.99 3.66 3.98 4 5 C2.35 5 0.7 5 -1 5 C-1.33 4.01 -1.66 3.02 -2 2 C-1.34 2 -0.68 2 0 2 C0 1.34 0 0.68 0 0 Z " fill="#626B75" transform="translate(15,13)"/>
</svg>
