<svg width="30" height="30" viewBox="0 0 30 30" fill="none" xmlns="http://www.w3.org/2000/svg">
<g id="flat-color-icons:shop">
<path id="Vector" d="M3.125 11.875H26.875V23.75H3.125V11.875Z" fill="#CFD8DC"/>
<path id="Vector_2" d="M3.125 23.75H26.875V26.25H3.125V23.75Z" fill="#B0BEC5"/>
<path id="Vector_3" d="M16.875 15H24.375V26.25H16.875V15Z" fill="#455A64"/>
<path id="Vector_4" d="M5.625 15H14.375V21.875H5.625V15Z" fill="#E3F2FD"/>
<path id="Vector_5" d="M6.25 15.625H13.75V21.25H6.25V15.625Z" fill="#1E88E5"/>
<path id="Vector_6" d="M22.8125 20.9375C22.625 20.9375 22.5 21.0625 22.5 21.25V22.5C22.5 22.6875 22.625 22.8125 22.8125 22.8125C23 22.8125 23.125 22.6875 23.125 22.5V21.25C23.125 21.0625 23 20.9375 22.8125 20.9375Z" fill="#90A4AE"/>
<g id="Group">
<path id="Vector_7" d="M15 13.75C16.0355 13.75 16.875 12.9105 16.875 11.875C16.875 10.8395 16.0355 10 15 10C13.9645 10 13.125 10.8395 13.125 11.875C13.125 12.9105 13.9645 13.75 15 13.75Z" fill="#558B2F"/>
<path id="Vector_8" d="M22.5 13.75C23.5355 13.75 24.375 12.9105 24.375 11.875C24.375 10.8395 23.5355 10 22.5 10C21.4645 10 20.625 10.8395 20.625 11.875C20.625 12.9105 21.4645 13.75 22.5 13.75Z" fill="#558B2F"/>
<path id="Vector_9" d="M7.5 13.75C8.53553 13.75 9.375 12.9105 9.375 11.875C9.375 10.8395 8.53553 10 7.5 10C6.46447 10 5.625 10.8395 5.625 11.875C5.625 12.9105 6.46447 13.75 7.5 13.75Z" fill="#558B2F"/>
</g>
<path id="Vector_10" d="M25 3.75H5C4.3125 3.75 3.75 4.3125 3.75 5V6.875H26.25V5C26.25 4.3125 25.6875 3.75 25 3.75ZM13.125 6.875H16.875V11.875H13.125V6.875ZM23.125 6.875H20L20.625 11.875H24.375L23.125 6.875ZM6.875 6.875H10L9.375 11.875H5.625L6.875 6.875Z" fill="#7CB342"/>
<g id="Group_2">
<path id="Vector_11" d="M18.75 13.75C19.7855 13.75 20.625 12.9105 20.625 11.875C20.625 10.8395 19.7855 10 18.75 10C17.7145 10 16.875 10.8395 16.875 11.875C16.875 12.9105 17.7145 13.75 18.75 13.75Z" fill="#FFA000"/>
<path id="Vector_12" d="M28.125 11.875C28.125 12.9375 27.3125 13.75 26.25 13.75C25.1875 13.75 24.375 12.9375 24.375 11.875C24.375 10.8125 25.1875 10 26.25 10L28.125 11.875Z" fill="#FFA000"/>
<path id="Vector_13" d="M11.25 13.75C12.2855 13.75 13.125 12.9105 13.125 11.875C13.125 10.8395 12.2855 10 11.25 10C10.2145 10 9.375 10.8395 9.375 11.875C9.375 12.9105 10.2145 13.75 11.25 13.75Z" fill="#FFA000"/>
<path id="Vector_14" d="M1.875 11.875C1.875 12.9375 2.6875 13.75 3.75 13.75C4.8125 13.75 5.625 12.9375 5.625 11.875C5.625 10.8125 4.8125 10 3.75 10L1.875 11.875Z" fill="#FFA000"/>
</g>
<path id="Vector_15" d="M20 6.875H16.875V11.875H20.625L20 6.875ZM26.25 6.875H23.125L24.375 11.875H28.125L26.25 6.875ZM10 6.875H13.125V11.875H9.375L10 6.875ZM3.75 6.875H6.875L5.625 11.875H1.875L3.75 6.875Z" fill="#FFC107"/>
</g>
</svg>
