<svg width="20" height="21" viewBox="0 0 20 21" fill="none" xmlns="http://www.w3.org/2000/svg">
<g id="Github" clip-path="url(#clip0_157_250)">
<path id="Vector" d="M9.99876 0.5C4.47751 0.5 5.77059e-06 4.995 5.77059e-06 10.54C-0.00225 12.6444 0.656899 14.6964 1.8843 16.4058C3.11169 18.1152 4.84526 19.3957 6.84001 20.0662C7.34001 20.1588 7.52251 19.8487 7.52251 19.5825C7.52251 19.3438 7.51376 18.7125 7.50876 17.875C4.72751 18.4812 4.14001 16.5287 4.14001 16.5287C3.68626 15.3687 3.03001 15.06 3.03001 15.06C2.12126 14.4375 3.09751 14.45 3.09751 14.45C4.10126 14.5212 4.62876 15.485 4.62876 15.485C5.52126 17.0187 6.97001 16.5763 7.54001 16.3187C7.63001 15.67 7.88876 15.2275 8.17501 14.9763C5.95501 14.7225 3.62001 13.8612 3.62001 10.015C3.62001 8.91875 4.01001 8.0225 4.65001 7.32C4.54626 7.06625 4.20376 6.045 4.74751 4.66375C4.74751 4.66375 5.58751 4.39375 7.49751 5.6925C8.31344 5.46952 9.1554 5.35602 10.0013 5.355C10.8471 5.35668 11.6891 5.47059 12.505 5.69375C14.4138 4.395 15.2525 4.665 15.2525 4.665C15.7975 6.0475 15.455 7.0675 15.3525 7.32125C15.9938 8.02375 16.38 8.92 16.38 10.0162C16.38 13.8725 14.0425 14.7213 11.815 14.97C12.1738 15.28 12.4938 15.8925 12.4938 16.8288C12.4938 18.1712 12.4813 19.2537 12.4813 19.5825C12.4813 19.8512 12.6613 20.1637 13.1688 20.065C15.1616 19.3929 16.893 18.1119 18.1187 16.4029C19.3444 14.6939 20.0024 12.6431 20 10.54C20 4.995 15.5225 0.5 9.99876 0.5Z" fill="black"/>
</g>
<defs>
<clipPath id="clip0_157_250">
<rect width="20" height="20" fill="white" transform="translate(0 0.5)"/>
</clipPath>
</defs>
</svg>
