<svg width="20" height="21" viewBox="0 0 20 21" fill="none" xmlns="http://www.w3.org/2000/svg">
<g id="Google" clip-path="url(#clip0_157_244)">
<path id="Vector" d="M19.9895 10.6873C19.9895 9.86792 19.9214 9.26998 19.7742 8.6499H10.1992V12.3482H15.8195C15.7062 13.2673 15.0943 14.6514 13.7346 15.5815L13.7155 15.7053L16.7429 17.9972L16.9527 18.0176C18.8789 16.2791 19.9895 13.7213 19.9895 10.6873Z" fill="#4285F4"/>
<path id="Vector_2" d="M10.1992 20.4312C12.9527 20.4312 15.2642 19.5453 16.9526 18.0173L13.7345 15.5812C12.8734 16.1681 11.7176 16.5777 10.1992 16.5777C7.50236 16.5777 5.21346 14.8393 4.39753 12.4365L4.27793 12.4464L1.12997 14.8271L1.08881 14.939C2.76582 18.1944 6.21054 20.4312 10.1992 20.4312Z" fill="#34A853"/>
<path id="Vector_3" d="M4.39754 12.4368C4.18225 11.8167 4.05765 11.1523 4.05765 10.4658C4.05765 9.77927 4.18225 9.11492 4.38621 8.49484L4.38051 8.36278L1.1931 5.94385L1.08882 5.99232C0.397637 7.34324 0.0010376 8.86026 0.0010376 10.4658C0.0010376 12.0714 0.397637 13.5884 1.08882 14.9393L4.39754 12.4368Z" fill="#FBBC05"/>
<path id="Vector_4" d="M10.1992 4.35336C12.1142 4.35336 13.4059 5.16168 14.1425 5.83718L17.0206 3.09107C15.253 1.4855 12.9527 0.5 10.1992 0.5C6.21054 0.5 2.76582 2.73672 1.08881 5.99214L4.3862 8.49466C5.21346 6.09183 7.50236 4.35336 10.1992 4.35336Z" fill="#EB4335"/>
</g>
<defs>
<clipPath id="clip0_157_244">
<rect width="20" height="20" fill="white" transform="translate(0 0.5)"/>
</clipPath>
</defs>
</svg>
