<svg width="12" height="12" viewBox="0 0 12 12" fill="none" xmlns="http://www.w3.org/2000/svg">
<path id="Vector" d="M3.4584 10.3354C3.8124 10.1794 4.2084 10.15 4.5792 10.252C5.0412 10.378 5.5182 10.4416 6 10.4404C8.751 10.4404 10.8 8.46811 10.8 5.82021C10.8 3.17232 8.751 1.20004 6 1.20004C3.249 1.20004 1.2 3.17232 1.2 5.82021C1.2 7.18226 1.7376 8.3835 2.6796 9.22593C2.85075 9.37754 2.98916 9.56249 3.08635 9.76946C3.18353 9.97642 3.23745 10.201 3.2448 10.4296L3.4584 10.3354ZM6 0C9.3798 0 12 2.47629 12 5.82021C12 9.16413 9.3798 11.6404 6 11.6404C5.41328 11.6419 4.82903 11.5644 4.263 11.41C4.15668 11.3808 4.04354 11.389 3.9426 11.4334L2.7516 11.959C2.67968 11.9908 2.60105 12.0045 2.52262 11.9987C2.4442 11.993 2.36838 11.9681 2.30184 11.9262C2.2353 11.8843 2.18006 11.8267 2.141 11.7585C2.10193 11.6902 2.08023 11.6134 2.0778 11.5348L2.0454 10.4668C2.04316 10.4018 2.02769 10.3379 1.99994 10.2791C1.97219 10.2203 1.93274 10.1678 1.884 10.1248C0.717 9.08073 0 7.56988 0 5.82021C0 2.47629 2.6196 0 6 0ZM2.397 7.52247L4.1592 4.72637C4.2255 4.6211 4.31291 4.53072 4.4159 4.46093C4.5189 4.39115 4.63524 4.34347 4.75758 4.32092C4.87993 4.29837 5.00562 4.30142 5.12673 4.3299C5.24784 4.35838 5.36172 4.41165 5.4612 4.48636L6.8628 5.5364C6.92528 5.58357 7.00142 5.60908 7.0797 5.60908C7.15798 5.60908 7.23412 5.58357 7.2966 5.5364L9.1896 4.09875C9.4422 3.90734 9.7722 4.20975 9.603 4.47856L7.8402 7.27466C7.77389 7.37976 7.68654 7.46998 7.58364 7.53965C7.48075 7.60932 7.36454 7.65693 7.24235 7.67948C7.12015 7.70203 6.9946 7.69902 6.87362 7.67066C6.75264 7.64229 6.63884 7.58918 6.5394 7.51467L5.1372 6.46463C5.07472 6.41747 4.99858 6.39195 4.9203 6.39195C4.84202 6.39195 4.76588 6.41747 4.7034 6.46463L2.8104 7.90169C2.5578 8.09309 2.2278 7.79128 2.397 7.52247Z" fill="#3F51B5"/>
</svg>
