<?xml version="1.0" encoding="UTF-8"?>
<svg version="1.1" xmlns="http://www.w3.org/2000/svg" width="30" height="30">
<path d="M0 0 C4.45498552 2.1102563 7.22604963 4.36801849 9 9 C9.89331384 16.11342503 9.41341405 21.27448988 5 27 C1.12799628 30.63733683 -3.19556709 30.5021193 -8.2734375 30.3515625 C-12.4713796 29.81028057 -14.6391627 28.59064542 -18 26 C-21.93316656 20.61387544 -21.78584252 15.44390864 -21 9 C-16.63929544 -0.20593186 -9.3488659 -1.1401056 0 0 Z " fill="#10D7BD" transform="translate(21,0)"/>
<path d="M0 0 C0.91007812 0.00902344 1.82015625 0.01804687 2.7578125 0.02734375 C3.45648438 0.03894531 4.15515625 0.05054688 4.875 0.0625 C4.875 1.7125 4.875 3.3625 4.875 5.0625 C4.215 5.0625 3.555 5.0625 2.875 5.0625 C2.875 5.7225 2.875 6.3825 2.875 7.0625 C3.535 7.0625 4.195 7.0625 4.875 7.0625 C4.813125 7.825625 4.75125 8.58875 4.6875 9.375 C4.58108662 12.08300558 4.58108662 12.08300558 6.3125 13.5 C8.56493422 15.75243422 8.53231074 17.9782967 8.875 21.0625 C5.53451897 23.28948735 4.34214419 23.3336921 0.4375 23.3125 C-0.50996094 23.31765625 -1.45742187 23.3228125 -2.43359375 23.328125 C-5.15052453 23.05998089 -6.79965583 22.44781142 -9.125 21.0625 C-8.65019254 16.78923288 -8.09827562 15.03577562 -5.125 12.0625 C-4.87430087 9.43679296 -4.87430087 9.43679296 -5.125 7.0625 C-4.465 7.0625 -3.805 7.0625 -3.125 7.0625 C-3.125 6.4025 -3.125 5.7425 -3.125 5.0625 C-4.115 5.0625 -5.105 5.0625 -6.125 5.0625 C-6.125 5.7225 -6.125 6.3825 -6.125 7.0625 C-6.785 7.0625 -7.445 7.0625 -8.125 7.0625 C-7.75 4.125 -7.75 4.125 -7.125 1.0625 C-4.60024538 -0.19987731 -2.81299534 -0.03606404 0 0 Z " fill="#5DA43D" transform="translate(15.125,6.9375)"/>
<path d="M0 0 C1.32 0 2.64 0 4 0 C5.9722333 3.9444666 5.45458651 8.7020912 5 13 C3.9383472 15.70744644 2.70086623 17.60815686 1 20 C0.01 20 -0.98 20 -2 20 C-2.28875 19.05125 -2.5775 18.1025 -2.875 17.125 C-3.76825109 13.94788422 -3.76825109 13.94788422 -6 12 C-5.625 9.375 -5.625 9.375 -5 7 C-5.66 7 -6.32 7 -7 7 C-7 6.34 -7 5.68 -7 5 C-3.535 4.505 -3.535 4.505 0 4 C0 2.68 0 1.36 0 0 Z " fill="#06CEAB" transform="translate(25,7)"/>
<path d="M0 0 C2.04119788 1.61594832 4.04072937 3.2856382 6 5 C6 5.66 6 6.32 6 7 C6.66 7 7.32 7 8 7 C8 6.34 8 5.68 8 5 C8.99 5 9.98 5 11 5 C11 5.66 11 6.32 11 7 C10.34 7 9.68 7 9 7 C9.2475 7.721875 9.495 8.44375 9.75 9.1875 C10 12 10 12 8.125 14.625 C7.073125 15.800625 7.073125 15.800625 6 17 C5.67 17.99 5.34 18.98 5 20 C2 19 2 19 0.328125 16.82421875 C-1.20388464 13.56644532 -1.33895835 11.39307351 -1.25 7.8125 C-1.23453125 6.76707031 -1.2190625 5.72164062 -1.203125 4.64453125 C-1 2 -1 2 0 0 Z " fill="#06D4AE" transform="translate(1,7)"/>
<path d="M0 0 C1.65 0 3.3 0 5 0 C5.12375 1.11375 5.2475 2.2275 5.375 3.375 C5.6465813 7.03103677 5.6465813 7.03103677 8 9 C7.67028521 12.29714793 7.3773161 13.6226839 5 16 C2.27130593 15.96712417 -0.2966618 15.43602229 -3 15 C-3.75 12.8125 -3.75 12.8125 -4 10 C-2.69254251 8.31295807 -1.35827971 6.64639965 0 5 C0.33592508 2.2895393 0.33592508 2.2895393 0 0 Z " fill="#60C431" transform="translate(10,14)"/>
<path d="M0 0 C0.91007812 0.00902344 1.82015625 0.01804687 2.7578125 0.02734375 C3.45648438 0.03894531 4.15515625 0.05054688 4.875 0.0625 C4.875 1.7125 4.875 3.3625 4.875 5.0625 C4.215 5.0625 3.555 5.0625 2.875 5.0625 C2.875 5.7225 2.875 6.3825 2.875 7.0625 C0.895 7.0625 -1.085 7.0625 -3.125 7.0625 C-3.125 6.4025 -3.125 5.7425 -3.125 5.0625 C-4.115 5.0625 -5.105 5.0625 -6.125 5.0625 C-6.125 5.7225 -6.125 6.3825 -6.125 7.0625 C-6.785 7.0625 -7.445 7.0625 -8.125 7.0625 C-7.75 4.125 -7.75 4.125 -7.125 1.0625 C-4.60024538 -0.19987731 -2.81299534 -0.03606404 0 0 Z " fill="#2B4152" transform="translate(15.125,6.9375)"/>
<path d="M0 0 C0.99 0 1.98 0 3 0 C2.855625 0.969375 2.71125 1.93875 2.5625 2.9375 C1.93952558 7.28052169 1.46492141 11.63765234 1 16 C-1.475 15.01 -1.475 15.01 -4 14 C-3.52519254 9.72673288 -2.97327562 7.97327562 0 5 C0.25069913 2.37429296 0.25069913 2.37429296 0 0 Z " fill="#9FE03A" transform="translate(10,14)"/>
<path d="M0 0 C1.65 0.33 3.3 0.66 5 1 C4.67 2.65 4.34 4.3 4 6 C2.35 5.67 0.7 5.34 -1 5 C-0.67 3.35 -0.34 1.7 0 0 Z " fill="#C6E4C3" transform="translate(13,22)"/>
<path d="M0 0 C1.22589844 0.01353516 1.22589844 0.01353516 2.4765625 0.02734375 C3.41628906 0.04474609 3.41628906 0.04474609 4.375 0.0625 C4.375 0.3925 4.375 0.7225 4.375 1.0625 C2.065 1.0625 -0.245 1.0625 -2.625 1.0625 C-2.625 2.3825 -2.625 3.7025 -2.625 5.0625 C-3.615 5.0625 -4.605 5.0625 -5.625 5.0625 C-5.625 5.7225 -5.625 6.3825 -5.625 7.0625 C-6.285 7.0625 -6.945 7.0625 -7.625 7.0625 C-7.25 4.125 -7.25 4.125 -6.625 1.0625 C-4.21954362 -0.14022819 -2.67503047 -0.03821472 0 0 Z " fill="#245765" transform="translate(14.625,6.9375)"/>
<path d="M0 0 C0 1.65 0 3.3 0 5 C-1.65 5 -3.3 5 -5 5 C-5 3.68 -5 2.36 -5 1 C-1.125 0 -1.125 0 0 0 Z " fill="#1D283A" transform="translate(20,7)"/>
</svg>
