<svg width="10" height="10" viewBox="0 0 10 10" fill="none" xmlns="http://www.w3.org/2000/svg">
<path id="Vector" d="M9.93425 9.11995C9.29948 7.96512 8.30829 7.06529 7.12023 6.56533C7.71104 6.10601 8.14745 5.46565 8.36765 4.73494C8.58785 4.00424 8.58067 3.22024 8.34714 2.49399C8.1136 1.76775 7.66554 1.13609 7.06643 0.688476C6.46732 0.240865 5.74753 0 5.00902 0C4.27051 0 3.55072 0.240865 2.95161 0.688476C2.3525 1.13609 1.90445 1.76775 1.67091 2.49399C1.43737 3.22024 1.43019 4.00424 1.65039 4.73494C1.87059 5.46565 2.30701 6.10601 2.89781 6.56533C1.70976 7.06529 0.718567 7.96512 0.0837953 9.11995C0.0444626 9.18551 0.0182475 9.2586 0.00670849 9.33487C-0.00483048 9.41114 -0.0014578 9.48904 0.0166261 9.56393C0.03471 9.63882 0.0671359 9.70918 0.111976 9.77082C0.156816 9.83247 0.213155 9.88413 0.277644 9.92276C0.342133 9.96138 0.413454 9.98616 0.487369 9.99564C0.561284 10.0051 0.636283 9.9991 0.707907 9.97793C0.779531 9.95676 0.846319 9.92089 0.904299 9.87243C0.962279 9.82397 1.01027 9.76392 1.04541 9.69586C1.88434 8.19274 3.36589 7.29625 5.00902 7.29625C6.65215 7.29625 8.1337 8.19322 8.97263 9.69586C9.0488 9.82281 9.16961 9.91409 9.30952 9.95039C9.44943 9.98669 9.59747 9.96517 9.72235 9.89038C9.84724 9.81559 9.93917 9.69339 9.97871 9.54961C10.0183 9.40584 10.0023 9.25176 9.93425 9.11995ZM2.6015 3.64884C2.6015 3.15526 2.7427 2.67277 3.00724 2.26237C3.27179 1.85197 3.64779 1.5321 4.08771 1.34322C4.52762 1.15433 5.01169 1.10491 5.47871 1.2012C5.94572 1.2975 6.3747 1.53518 6.7114 1.88419C7.04809 2.23321 7.27739 2.67788 7.37028 3.16198C7.46318 3.64608 7.4155 4.14786 7.23328 4.60387C7.05106 5.05988 6.74248 5.44964 6.34657 5.72385C5.95065 5.99807 5.48519 6.14444 5.00902 6.14444C4.37074 6.14368 3.7588 5.8805 3.30746 5.41265C2.85612 4.9448 2.60224 4.31048 2.6015 3.64884Z" fill="#3F51B5"/>
</svg>
