<svg width="28" height="26" viewBox="0 0 28 26" fill="none" xmlns="http://www.w3.org/2000/svg">
<g id="Vector" filter="url(#filter0_d_42_210)">
<path d="M14.5662 0.447234L16.8376 5.03295C16.8892 5.14934 16.9705 5.25016 17.0733 5.32536C17.176 5.40055 17.2967 5.4475 17.4233 5.46152L22.4376 6.20438C22.5828 6.22304 22.7197 6.28262 22.8322 6.37617C22.9448 6.46972 23.0285 6.59337 23.0734 6.73268C23.1184 6.87199 23.1227 7.02122 23.086 7.16292C23.0493 7.30463 22.9731 7.43297 22.8662 7.53295L19.2519 11.1187C19.1596 11.2048 19.0904 11.3127 19.0505 11.4325C19.0106 11.5522 19.0012 11.6801 19.0233 11.8044L19.8947 16.8472C19.92 16.9921 19.904 17.1412 19.8487 17.2775C19.7934 17.4138 19.7009 17.5318 19.5818 17.6181C19.4628 17.7045 19.3218 17.7556 19.1751 17.7658C19.0284 17.776 18.8817 17.7448 18.7519 17.6758L14.2376 15.2901C14.122 15.2333 13.9949 15.2038 13.8662 15.2038C13.7374 15.2038 13.6103 15.2333 13.4947 15.2901L8.98044 17.6758C8.85057 17.7448 8.70392 17.776 8.55719 17.7658C8.41046 17.7556 8.26954 17.7045 8.15046 17.6181C8.03138 17.5318 7.93893 17.4138 7.88361 17.2775C7.8283 17.1412 7.81235 16.9921 7.83758 16.8472L8.70901 11.7472C8.7311 11.6229 8.72176 11.4951 8.68183 11.3753C8.64191 11.2556 8.57268 11.1477 8.48044 11.0615L4.8233 7.53295C4.7151 7.43023 4.63901 7.29834 4.60425 7.15326C4.56948 7.00817 4.57753 6.85612 4.62742 6.71552C4.67731 6.57492 4.7669 6.4518 4.88534 6.36108C5.00378 6.27036 5.14598 6.21593 5.29473 6.20438L10.309 5.46152C10.4356 5.4475 10.5563 5.40055 10.659 5.32536C10.7618 5.25016 10.8431 5.14934 10.8947 5.03295L13.1662 0.447234C13.228 0.313675 13.3268 0.200599 13.4508 0.121354C13.5749 0.0421079 13.719 0 13.8662 0C14.0133 0 14.1575 0.0421079 14.2815 0.121354C14.4055 0.200599 14.5043 0.313675 14.5662 0.447234Z" fill="#FFCC4D"/>
</g>
<defs>
<filter id="filter0_d_42_210" x="0.583008" y="0" width="26.5276" height="25.7677" filterUnits="userSpaceOnUse" color-interpolation-filters="sRGB">
<feFlood flood-opacity="0" result="BackgroundImageFix"/>
<feColorMatrix in="SourceAlpha" type="matrix" values="0 0 0 0 0 0 0 0 0 0 0 0 0 0 0 0 0 0 127 0" result="hardAlpha"/>
<feOffset dy="4"/>
<feGaussianBlur stdDeviation="2"/>
<feComposite in2="hardAlpha" operator="out"/>
<feColorMatrix type="matrix" values="0 0 0 0 0 0 0 0 0 0 0 0 0 0 0 0 0 0 0.25 0"/>
<feBlend mode="normal" in2="BackgroundImageFix" result="effect1_dropShadow_42_210"/>
<feBlend mode="normal" in="SourceGraphic" in2="effect1_dropShadow_42_210" result="shape"/>
</filter>
</defs>
</svg>
