<svg width="30" height="30" viewBox="0 0 30 30" fill="none" xmlns="http://www.w3.org/2000/svg">
<g id="twemoji:racing-car" clip-path="url(#clip0_22_168)">
<path id="Vector" d="M5 19.1667H2.5L0.833333 14.1667H3.33333L5 19.1667Z" fill="#414042"/>
<path id="Vector_2" d="M5.83334 15.8333C5.83334 15.8333 8.33334 12.5 9.16668 12.5H16.6667L21.6667 16.6667L26.7342 18.1417C27.2508 18.3225 27.9425 18.6717 28.0342 19.1667L30 27.5C30.1042 28.0383 29.6267 28.3333 29.1667 28.3333H0.833342C0.612328 28.3333 0.400364 28.2455 0.244083 28.0893C0.0878048 27.933 7.62939e-06 27.721 7.62939e-06 27.5V17.5C7.62939e-06 15.8333 5.83334 15.8333 5.83334 15.8333Z" fill="#F4900C"/>
<path id="Vector_3" d="M16.5883 16.6667L20.8333 28.3333H10.8333L6.66665 16.6667H16.5883Z" fill="#3B88C3"/>
<path id="Vector_4" d="M23.3334 29.1667C21.4924 29.1667 20 27.6743 20 25.8333C20 23.9924 21.4924 22.5 23.3334 22.5C25.1743 22.5 26.6667 23.9924 26.6667 25.8333C26.6667 27.6743 25.1743 29.1667 23.3334 29.1667Z" fill="#292F33"/>
<path id="Vector_5" d="M23.3333 27.5C22.4129 27.5 21.6667 26.7538 21.6667 25.8333C21.6667 24.9129 22.4129 24.1667 23.3333 24.1667C24.2538 24.1667 25 24.9129 25 25.8333C25 26.7538 24.2538 27.5 23.3333 27.5Z" fill="#58595B"/>
<path id="Vector_6" d="M5.83335 29.1667C3.9924 29.1667 2.50002 27.6743 2.50002 25.8333C2.50002 23.9924 3.9924 22.5 5.83335 22.5C7.6743 22.5 9.16669 23.9924 9.16669 25.8333C9.16669 27.6743 7.6743 29.1667 5.83335 29.1667Z" fill="#292F33"/>
<path id="Vector_7" d="M5.83333 27.5C4.91286 27.5 4.16667 26.7538 4.16667 25.8333C4.16667 24.9129 4.91286 24.1667 5.83333 24.1667C6.75381 24.1667 7.5 24.9129 7.5 25.8333C7.5 26.7538 6.75381 27.5 5.83333 27.5Z" fill="#58595B"/>
<path id="Vector_8" d="M13.75 25C12.1392 25 10.8334 23.6942 10.8334 22.0833C10.8334 20.4725 12.1392 19.1667 13.75 19.1667C15.3609 19.1667 16.6667 20.4725 16.6667 22.0833C16.6667 23.6942 15.3609 25 13.75 25Z" fill="white"/>
<path id="Vector_9" d="M12.4541 21.035C12.4541 21.4025 12.6125 21.7233 12.9325 21.9283C12.5125 22.12 12.2208 22.5108 12.2208 22.9733C12.2208 23.6733 12.8616 24.2625 13.6908 24.2625C14.555 24.2625 15.0925 23.6258 15.0925 23.1658C15.0925 22.9383 14.8533 22.775 14.6433 22.775C14.2458 22.775 14.34 23.4567 13.68 23.4567C13.6082 23.4579 13.5369 23.4448 13.4702 23.4181C13.4036 23.3914 13.343 23.3516 13.2919 23.3012C13.2408 23.2507 13.2003 23.1905 13.1728 23.1242C13.1453 23.0579 13.1313 22.9868 13.1316 22.915C13.1316 22.0983 14.1241 22.6983 14.1241 22.01C14.1241 21.3983 13.295 21.8117 13.295 21.1633C13.295 20.9417 13.4516 20.7725 13.7158 20.7725C14.27 20.7725 14.1941 21.3442 14.5908 21.3442C14.8308 21.3442 14.9708 21.1292 14.9708 20.9125C14.9708 20.4567 14.3458 19.9667 13.6983 19.9667C12.8575 19.9675 12.4541 20.5808 12.4541 21.035Z" fill="#231F20"/>
<path id="Vector_10" d="M5 15L4.16667 14.1667L-9.53674e-07 13.3333V15H5Z" fill="#F4900C"/>
<path id="Vector_11" d="M15.8333 13.3333H9.16667V16.6667H20L15.8333 13.3333Z" fill="#88C9F9"/>
<path id="Vector_12" d="M25 20C25 20.221 25.0878 20.433 25.2441 20.5893C25.4003 20.7455 25.6123 20.8333 25.8333 20.8333H27.5C27.721 20.8333 27.933 20.7455 28.0892 20.5893C28.2455 20.433 28.3333 20.221 28.3333 20C28.3333 19.779 28.2455 19.567 28.0892 19.4107C27.933 19.2545 27.721 19.1667 27.5 19.1667H25.8333C25.6123 19.1667 25.4003 19.2545 25.2441 19.4107C25.0878 19.567 25 19.779 25 20Z" fill="#FFCC4D"/>
<path id="Vector_13" d="M2.03848e-05 18.3333H0.833354C1.05437 18.3333 1.26633 18.4211 1.42261 18.5774C1.57889 18.7337 1.66669 18.9457 1.66669 19.1667V20C1.66669 20.221 1.57889 20.433 1.42261 20.5893C1.26633 20.7455 1.05437 20.8333 0.833354 20.8333H2.03848e-05V18.3333Z" fill="#DD2E44"/>
</g>
<defs>
<clipPath id="clip0_22_168">
<rect width="30" height="30" fill="white" transform="matrix(-1 0 0 1 30 0)"/>
</clipPath>
</defs>
</svg>
