<svg width="30" height="30" viewBox="0 0 30 30" fill="none" xmlns="http://www.w3.org/2000/svg">
<g id="twemoji:factory-worker" clip-path="url(#clip0_4_90)">
<path id="Vector" d="M30 30V28.3333C30 27.0072 29.4732 25.7355 28.5355 24.7978C27.5979 23.8601 26.3261 23.3333 25 23.3333H11.6667C10.3406 23.3333 9.06881 23.8601 8.13113 24.7978C7.19345 25.7355 6.66666 27.0072 6.66666 28.3333V30H30Z" fill="#3B88C3"/>
<path id="Vector_2" d="M18.3333 29.9992L13.6667 22.5H23L18.3333 29.9992Z" fill="#292F33"/>
<path id="Vector_3" d="M14.7 25.0317C16.1533 26.0883 17.0733 26.6675 18.3333 26.6675C19.5933 26.6675 20.5125 26.0875 21.9658 25.0317V20.2408H14.6992L14.7 25.0317Z" fill="#FFDC5D"/>
<path id="Vector_4" d="M12.5 23.3333C12.5 24.1667 13.3333 25.8333 15 27.5C16.3175 28.8175 18.3333 30 18.3333 30C18.3333 27.4475 17.5 26.6667 16.6667 25.8333C15.8333 25 14.1667 24.1667 14.1667 22.5C14.1667 21.6667 12.5 23.3333 12.5 23.3333ZM24.1667 23.3333C24.1667 24.1667 23.3333 25.8333 21.6667 27.5C20.3492 28.8175 18.3333 30 18.3333 30C18.3333 27.4475 19.1667 26.6667 20 25.8333C20.8333 25 22.5 24.1667 22.5 22.5C22.5 21.6667 24.1667 23.3333 24.1667 23.3333Z" fill="#55ACEE"/>
<path id="Vector_5" d="M14.6933 21.6442C15.7067 22.7892 16.9633 23.0992 18.33 23.0992C19.6958 23.0992 20.9525 22.7892 21.9667 21.6442V18.735H14.6933V21.6442Z" fill="#F9CA55"/>
<path id="Vector_6" d="M20.96 2.75C19.3558 2.23083 16.0633 2.36667 15.12 3.59333C12.6667 3.64083 10.0508 6.03667 9.67333 8.9625C9.3 11.8583 9.86917 13.0242 10.1658 15.2008C10.5017 17.6675 11.8883 18.4567 12.9967 18.7867C14.5917 20.8942 16.2875 20.8042 19.135 20.8042C24.695 20.8042 26.8608 17.0892 27.095 10.7708C27.2358 6.95 24.9933 4.055 20.96 2.75Z" fill="#FFAC33"/>
<path id="Vector_7" d="M24.6225 11.0358C24.0842 10.2908 23.3958 9.69083 21.8858 9.47917C22.4525 9.73833 22.995 10.635 23.0658 11.1308C23.1367 11.6267 23.2075 12.0275 22.7592 11.5317C20.9633 9.54667 19.0075 10.3283 17.07 9.11583C15.7167 8.26917 15.3042 7.33167 15.3042 7.33167C15.3042 7.33167 15.1392 8.58167 13.0867 9.85583C12.4917 10.225 11.7817 11.0475 11.3883 12.2625C11.105 13.1358 11.1933 13.9142 11.1933 15.2442C11.1933 19.1275 14.3942 22.3925 18.3417 22.3925C22.2892 22.3925 25.49 19.0983 25.49 15.2442C25.4883 12.8292 25.2358 11.8858 24.6225 11.0358Z" fill="#FFDC5D"/>
<path id="Vector_8" d="M19.1342 17.2308H17.5458C17.4404 17.2308 17.3393 17.189 17.2648 17.1144C17.1902 17.0399 17.1483 16.9388 17.1483 16.8333C17.1483 16.7279 17.1902 16.6268 17.2648 16.5523C17.3393 16.4777 17.4404 16.4358 17.5458 16.4358H19.1342C19.2396 16.4358 19.3407 16.4777 19.4152 16.5523C19.4898 16.6268 19.5317 16.7279 19.5317 16.8333C19.5317 16.9388 19.4898 17.0399 19.4152 17.1144C19.3407 17.189 19.2396 17.2308 19.1342 17.2308Z" fill="#C1694F"/>
<path id="Vector_9" d="M15.1625 14.4508C14.9519 14.4508 14.7499 14.3672 14.6009 14.2182C14.452 14.0693 14.3683 13.8673 14.3683 13.6567V12.8625C14.3683 12.6519 14.452 12.4499 14.6009 12.3009C14.7499 12.152 14.9519 12.0683 15.1625 12.0683C15.3731 12.0683 15.5751 12.152 15.7241 12.3009C15.873 12.4499 15.9567 12.6519 15.9567 12.8625V13.6567C15.9567 13.8673 15.873 14.0693 15.7241 14.2182C15.5751 14.3672 15.3731 14.4508 15.1625 14.4508ZM21.5175 14.4508C21.3069 14.4508 21.1049 14.3672 20.9559 14.2182C20.807 14.0693 20.7233 13.8673 20.7233 13.6567V12.8625C20.7233 12.6519 20.807 12.4499 20.9559 12.3009C21.1049 12.152 21.3069 12.0683 21.5175 12.0683C21.7281 12.0683 21.9301 12.152 22.0791 12.3009C22.228 12.4499 22.3117 12.6519 22.3117 12.8625V13.6567C22.3117 13.8673 22.228 14.0693 22.0791 14.2182C21.9301 14.3672 21.7281 14.4508 21.5175 14.4508Z" fill="#662113"/>
<path id="Vector_10" d="M18.445 20.5475C16.15 20.5475 15.445 19.96 15.3275 19.8408C15.2755 19.7915 15.2338 19.7324 15.2046 19.6669C15.1755 19.6014 15.1595 19.5308 15.1577 19.4591C15.1539 19.3144 15.2078 19.1741 15.3075 19.0692C15.4072 18.9642 15.5445 18.9031 15.6892 18.8993C15.8339 18.8956 15.9742 18.9495 16.0792 19.0492C16.1225 19.08 16.68 19.455 18.445 19.455C20.2783 19.455 20.8083 19.0508 20.8133 19.0467C20.8637 18.9967 20.9235 18.9574 20.9893 18.931C21.0551 18.9045 21.1255 18.8915 21.1964 18.8926C21.2673 18.8938 21.3372 18.9091 21.4021 18.9377C21.467 18.9663 21.5255 19.0076 21.5742 19.0592C21.6752 19.1651 21.7306 19.3064 21.7284 19.4528C21.7262 19.5992 21.6666 19.7388 21.5625 19.8417C21.4442 19.96 20.74 20.5475 18.445 20.5475Z" fill="#C1694F"/>
<path id="Vector_11" d="M14.375 16.4583C16.1009 16.4583 17.5 15.0592 17.5 13.3333C17.5 11.6074 16.1009 10.2083 14.375 10.2083C12.6491 10.2083 11.25 11.6074 11.25 13.3333C11.25 15.0592 12.6491 16.4583 14.375 16.4583Z" fill="#F9CA55"/>
<path id="Vector_12" d="M22.2917 16.4583C24.0176 16.4583 25.4167 15.0592 25.4167 13.3333C25.4167 11.6074 24.0176 10.2083 22.2917 10.2083C20.5658 10.2083 19.1667 11.6074 19.1667 13.3333C19.1667 15.0592 20.5658 16.4583 22.2917 16.4583Z" fill="#F9CA55"/>
<path id="Vector_13" d="M16.25 12.5H20.4167V14.5833H16.25V12.5Z" fill="#F9CA55"/>
<path id="Vector_14" d="M14.5833 15.8333C16.1942 15.8333 17.5 14.5275 17.5 12.9167C17.5 11.3058 16.1942 10 14.5833 10C12.9725 10 11.6667 11.3058 11.6667 12.9167C11.6667 14.5275 12.9725 15.8333 14.5833 15.8333Z" fill="#E1E8ED"/>
<path id="Vector_15" d="M22.0833 15.8333C23.6942 15.8333 25 14.5275 25 12.9167C25 11.3058 23.6942 10 22.0833 10C20.4725 10 19.1667 11.3058 19.1667 12.9167C19.1667 14.5275 20.4725 15.8333 22.0833 15.8333Z" fill="#E1E8ED"/>
<path id="Vector_16" d="M16.25 11.6667H20.4167V13.75H16.25V11.6667Z" fill="#E1E8ED"/>
<path id="Vector_17" d="M14.5833 15C15.7339 15 16.6667 14.0673 16.6667 12.9167C16.6667 11.7661 15.7339 10.8333 14.5833 10.8333C13.4327 10.8333 12.5 11.7661 12.5 12.9167C12.5 14.0673 13.4327 15 14.5833 15Z" fill="#292F33"/>
<path id="Vector_18" d="M22.0833 15C23.2339 15 24.1667 14.0673 24.1667 12.9167C24.1667 11.7661 23.2339 10.8333 22.0833 10.8333C20.9327 10.8333 20 11.7661 20 12.9167C20 14.0673 20.9327 15 22.0833 15Z" fill="#292F33"/>
<path id="Vector_19" d="M4.16666 20L2.91666 20.8333C2.91666 20.8333 4.16666 22.9167 4.16666 25.8333V30H5.83333V25.8333C5.83333 22.0833 4.16666 20 4.16666 20Z" fill="#66757F"/>
<path id="Vector_20" d="M5.06583 19.8392C5.14905 19.9908 5.16885 20.1691 5.12091 20.3353C5.07297 20.5015 4.96118 20.6419 4.81 20.7258L3.035 21.7075C2.88325 21.7908 2.70464 21.8105 2.53839 21.7622C2.37214 21.7139 2.23185 21.6016 2.14833 21.45L1.7725 20.77C1.73107 20.695 1.70483 20.6125 1.69526 20.5274C1.6857 20.4422 1.69301 20.356 1.71676 20.2737C1.74052 20.1913 1.78026 20.1145 1.83372 20.0475C1.88718 19.9805 1.95331 19.9248 2.02833 19.8833L3.80333 18.9017C3.87845 18.8603 3.96098 18.8342 4.04621 18.8247C4.13144 18.8153 4.21769 18.8227 4.30004 18.8466C4.38239 18.8705 4.45921 18.9105 4.52613 18.9641C4.59304 19.0177 4.64872 19.084 4.69 19.1592L5.06583 19.8392Z" fill="#99AAB5"/>
<path id="Vector_21" d="M2.90838 18.82C6.39838 16.9792 0.0433777 13.5942 0.0433777 13.5942C0.0433777 13.5942 -0.581622 20.6608 2.90838 18.82Z" fill="#F4900C"/>
<path id="Vector_22" d="M2.46667 17.8042C4.30167 16.8358 0.96 15.055 0.96 15.055C0.96 15.055 0.631666 18.7708 2.46667 17.8042Z" fill="#FFDC5D"/>
<path id="Vector_23" d="M28.3333 9.16667C25.8333 7.5 27.4933 5.6925 25.8333 3.33333C24.2717 1.11417 21.6667 -4.76837e-07 18.3308 -4.76837e-07C14.1667 -4.76837e-07 12.395 1.11417 10.8333 3.33333C9.17333 5.6925 10.8333 7.5 8.33333 9.16667C6.7825 10.2 13.3333 11.0942 18.3333 11.0942C23.3333 11.0942 29.8842 10.2 28.3333 9.16667Z" fill="#3B88C3"/>
<path id="Vector_24" d="M16.6667 9.58333V0.0733328C16.375 0.0999995 16.0975 0.134999 15.8333 0.176666V8.74417C14.0917 8.7025 11.5633 8.41417 9.45583 8.03333C9.2924 8.30717 9.08714 8.55376 8.8475 8.76417C11.2733 9.235 14.3442 9.5825 16.25 9.5825H16.6667V9.58333ZM20.4167 9.58333C22.4342 9.58333 25.4475 9.25583 27.8392 8.78417C27.5969 8.57388 27.3885 8.32735 27.2217 8.05333C25.1958 8.42667 22.7458 8.70917 20.8325 8.74667V0.243333C20.5633 0.188333 20.2825 0.149999 19.9992 0.114166V9.58333H20.4167Z" fill="#226699"/>
</g>
<defs>
<clipPath id="clip0_4_90">
<rect width="30" height="30" fill="white"/>
</clipPath>
</defs>
</svg>
