<?xml version="1.0" standalone="no"?>
<!DOCTYPE svg PUBLIC "-//W3C//DTD SVG 20010904//EN"
 "http://www.w3.org/TR/2001/REC-SVG-20010904/DTD/svg10.dtd">
<svg version="1.0" xmlns="http://www.w3.org/2000/svg"
 width="100.000000pt" height="100.000000pt" viewBox="0 0 100.000000 100.000000"
 preserveAspectRatio="xMidYMid meet">

<g transform="translate(0.000000,100.000000) scale(0.100000,-0.100000)"
fill="#000000" stroke="none">
<path d="M395 988 c-180 -34 -345 -200 -384 -386 -32 -152 12 -317 114 -430
43 -47 130 -112 152 -112 15 0 32 44 23 61 -4 8 -5 32 -1 54 4 22 2 70 -5 107
-6 37 -11 69 -10 70 1 2 -5 -3 -11 -11 -11 -12 -13 -9 -13 21 0 20 -3 43 -6
51 -3 8 5 24 17 36 13 12 19 21 13 21 -12 0 18 20 31 20 6 0 10 -26 9 -60 l-1
-60 39 0 c25 0 38 -4 38 -14 0 -9 10 -12 30 -10 17 2 30 -1 30 -6 0 -6 -4 -10
-9 -10 -4 0 -6 -11 -3 -25 3 -19 0 -25 -14 -26 -18 0 -18 -1 1 -8 19 -8 19 -8
0 -19 -18 -11 -19 -13 -3 -22 19 -11 13 -50 -7 -50 -7 0 -16 -6 -18 -12 -4
-10 -6 -10 -6 0 -1 6 -8 12 -17 12 -14 0 -15 7 -10 37 3 21 6 48 6 61 0 12 6
22 14 22 8 0 17 7 20 16 5 14 1 16 -34 11 -31 -4 -42 -1 -50 11 -5 10 -10 12
-10 6 0 -5 6 -16 12 -22 10 -10 10 -14 0 -21 -10 -6 -10 -10 2 -20 12 -10 16
-9 25 6 9 16 10 16 8 -4 0 -12 -4 -20 -7 -18 -4 2 -6 -13 -4 -33 1 -20 2 -47
3 -59 1 -20 7 -23 40 -23 34 0 39 -3 39 -25 0 -31 -15 -33 -21 -3 -3 14 -5 8
-6 -15 0 -23 3 -36 9 -32 6 3 10 -4 11 -17 2 -55 17 33 24 141 6 94 10 112 23
109 8 -2 17 -9 20 -16 2 -7 -2 -10 -12 -6 -9 3 -16 2 -16 -4 0 -6 8 -9 18 -8
18 3 46 71 38 93 -3 7 0 13 5 13 6 0 9 9 6 20 -3 10 -1 20 4 22 5 2 10 14 11
28 2 20 -1 25 -19 24 -12 0 -19 4 -16 9 3 5 15 6 27 3 16 -4 24 1 34 21 6 15
12 34 12 42 1 9 13 58 28 110 30 101 51 129 49 63 -1 -22 -5 -38 -8 -36 -11 6
-19 -24 -20 -74 -1 -47 -27 -136 -28 -98 -1 11 -4 17 -7 13 -10 -10 7 -47 22
-47 8 0 14 5 14 10 0 6 9 10 20 10 11 0 20 -6 20 -14 0 -8 11 -17 24 -20 18
-4 24 -12 22 -30 -2 -16 1 -23 10 -19 15 6 38 -33 24 -42 -5 -3 -6 -13 -3 -21
5 -13 7 -13 14 -2 7 10 9 9 9 -4 0 -9 3 -23 6 -31 3 -10 -3 -17 -21 -21 -14
-4 -23 -11 -20 -15 3 -5 -5 -7 -17 -3 -16 4 -19 2 -13 -8 5 -9 4 -11 -3 -6
-18 11 -14 24 8 31 14 4 20 15 20 37 0 19 -4 28 -12 25 -7 -2 -12 -16 -11 -31
1 -17 -3 -26 -13 -26 -8 0 -14 -10 -15 -22 0 -22 -1 -22 -8 -3 -6 13 -4 23 5
28 8 4 14 15 14 23 0 8 -4 13 -9 10 -5 -4 -7 4 -4 16 4 18 2 20 -6 8 -5 -8
-13 -11 -17 -7 -4 4 -2 13 4 19 14 14 16 28 3 28 -5 0 -13 -9 -16 -20 -7 -21
-45 -28 -45 -9 0 6 6 9 14 6 8 -3 17 1 20 8 7 18 -10 30 -18 13 -3 -7 -4 6 -1
30 7 55 -11 55 -25 0 -6 -24 -13 -50 -16 -59 -2 -9 2 -22 11 -29 12 -10 18
-10 32 1 15 13 15 12 6 -5 -6 -10 -8 -26 -6 -35 2 -9 -1 -30 -7 -46 -10 -27
-13 -28 -21 -12 -6 9 -15 15 -21 11 -6 -4 -6 0 1 14 8 16 7 21 -4 26 -20 7
-19 36 1 36 14 0 14 2 3 16 -11 14 -15 11 -26 -22 -13 -37 -8 -108 7 -99 4 3
8 -7 8 -20 0 -15 -6 -25 -14 -25 -8 0 -14 -7 -14 -15 0 -8 5 -15 11 -15 5 0 7
5 4 10 -3 6 -1 10 6 10 8 0 9 -18 4 -66 -5 -47 -4 -64 4 -60 6 4 11 3 11 -3 0
-5 -6 -11 -12 -14 -7 -2 -10 -8 -6 -12 9 -10 69 5 63 15 -3 5 -12 7 -20 3 -11
-4 -15 2 -15 21 0 22 4 26 29 26 18 0 31 6 35 17 6 15 8 15 16 3 6 -8 10 -10
11 -5 1 6 4 -4 8 -22 l6 -32 33 16 c26 12 30 18 21 29 -6 8 -17 14 -24 14 -8
0 -15 4 -17 8 -2 5 -16 12 -31 16 -24 6 -30 3 -34 -14 -3 -11 -10 -20 -15 -20
-5 0 -6 5 -3 10 3 6 1 10 -4 10 -6 0 -11 -6 -11 -12 0 -9 -3 -9 -9 1 -5 8 -7
20 -4 28 3 7 -1 13 -8 14 -8 0 -6 4 5 8 16 6 16 9 5 22 -29 31 -19 43 11 14
31 -29 32 -29 25 -6 -6 19 2 49 22 80 4 6 52 -54 53 -65 0 -18 46 -44 75 -44
15 0 24 4 20 10 -3 6 -1 10 4 10 6 0 11 -12 11 -27 1 -27 3 -26 51 27 178 195
169 491 -21 680 -123 124 -280 172 -455 138z m73 -97 c9 -5 30 -14 45 -20 27
-11 47 -44 61 -104 6 -25 4 -27 -17 -23 -14 2 -70 7 -126 11 -55 4 -101 11
-101 16 0 5 7 27 17 50 12 32 25 45 57 59 23 10 42 19 44 19 1 1 10 -3 20 -8z
m-72 -208 c19 -7 18 -33 -1 -33 -17 0 -20 -16 -5 -25 6 -4 7 -11 4 -17 -12
-19 -26 10 -30 63 -3 55 9 95 14 46 2 -16 10 -31 18 -34z m131 33 c-3 -8 0
-22 7 -32 11 -14 10 -22 -1 -46 -8 -15 -19 -26 -24 -22 -5 3 -7 9 -4 14 7 11
-33 25 -62 21 -27 -3 -26 -4 -12 38 12 34 30 43 22 11 -5 -18 -1 -21 29 -18
30 2 34 5 32 25 -1 13 2 23 8 23 6 0 8 -6 5 -14z m-63 -101 c-6 -16 -44 -21
-44 -7 0 14 12 22 31 22 12 0 16 -5 13 -15z m1 -35 c-3 -5 -13 -10 -21 -10 -8
0 -12 5 -9 10 3 6 13 10 21 10 8 0 12 -4 9 -10z m-89 -90 c0 -39 -2 -47 -13
-38 -10 8 -13 7 -13 -3 0 -11 -2 -11 -12 0 -10 11 -10 14 0 18 6 3 12 11 12
19 0 14 17 54 23 54 2 0 3 -22 3 -50z m115 20 c5 0 -6 -13 -24 -30 -38 -33
-57 -38 -57 -14 0 40 60 91 68 58 2 -8 8 -14 13 -14z m-108 -115 c4 -6 11 -4
17 6 10 18 55 15 67 -4 3 -5 1 -7 -4 -4 -6 4 -13 0 -16 -7 -3 -8 -1 -17 6 -20
7 -2 2 -5 -9 -5 -12 -1 -25 6 -28 15 -3 8 -11 12 -16 9 -6 -4 -18 -1 -26 6
-13 10 -17 10 -25 -2 -6 -10 -8 -7 -7 13 2 23 5 25 18 15 8 -7 18 -16 23 -22z
m127 -28 c0 -7 -9 -20 -20 -30 -19 -16 -20 -16 -20 13 0 23 4 30 20 30 11 0
20 -6 20 -13z m280 -123 c0 -13 -3 -24 -7 -24 -5 0 -18 -3 -30 -6 -19 -5 -21
-3 -16 17 13 50 53 59 53 13z m8 -53 c-7 -11 -16 -17 -20 -15 -14 9 -9 22 10
27 9 3 18 5 20 6 1 0 -3 -8 -10 -18z m-571 -87 c-9 -10 -27 15 -21 31 7 17 8
16 16 -5 5 -13 7 -24 5 -26z m51 -14 c-7 -10 -14 -17 -17 -15 -4 4 18 35 25
35 2 0 -1 -9 -8 -20z"/>
<path d="M480 360 c0 -5 5 -10 10 -10 6 0 10 5 10 10 0 6 -4 10 -10 10 -5 0
-10 -4 -10 -10z"/>
<path d="M640 455 c0 -8 5 -15 10 -15 6 0 10 7 10 15 0 8 -4 15 -10 15 -5 0
-10 -7 -10 -15z"/>
<path d="M670 450 c0 -5 5 -10 12 -10 6 0 3 -7 -8 -16 -16 -13 -16 -15 -1 -10
11 3 17 0 17 -10 0 -8 4 -13 10 -9 5 3 8 19 7 35 -1 21 -7 30 -19 30 -10 0
-18 -4 -18 -10z"/>
<path d="M275 439 c-4 -6 -4 -13 0 -17 4 -4 10 -1 12 6 3 6 9 10 14 6 5 -3 9
0 9 5 0 14 -27 14 -35 0z"/>
<path d="M705 379 c-10 -15 3 -25 16 -12 7 7 7 13 1 17 -6 3 -14 1 -17 -5z"/>
<path d="M370 350 c0 -5 5 -10 10 -10 6 0 10 5 10 10 0 6 -4 10 -10 10 -5 0
-10 -4 -10 -10z"/>
<path d="M760 320 c0 -5 5 -10 11 -10 5 0 7 5 4 10 -3 6 -8 10 -11 10 -2 0 -4
-4 -4 -10z"/>
<path d="M390 280 c0 -5 5 -10 10 -10 6 0 10 5 10 10 0 6 -4 10 -10 10 -5 0
-10 -4 -10 -10z"/>
<path d="M315 260 c3 -5 8 -10 11 -10 2 0 4 5 4 10 0 6 -5 10 -11 10 -5 0 -7
-4 -4 -10z"/>
<path d="M390 241 c0 -25 6 -27 13 -6 4 8 2 17 -3 20 -6 4 -10 -3 -10 -14z"/>
<path d="M470 245 c0 -8 4 -15 8 -15 5 0 9 7 9 15 0 8 -4 15 -9 15 -4 0 -8 -7
-8 -15z"/>
<path d="M532 220 c0 -14 2 -19 5 -12 2 6 2 18 0 25 -3 6 -5 1 -5 -13z"/>
<path d="M490 180 c0 -17 5 -30 13 -30 8 0 7 -4 -3 -10 -13 -9 -13 -11 0 -20
10 -6 11 -10 3 -10 -8 0 -13 -13 -13 -33 0 -23 5 -34 15 -34 12 0 15 16 15 84
0 67 -3 83 -15 83 -10 0 -15 -10 -15 -30z"/>
<path d="M460 165 c0 -8 5 -15 10 -15 6 0 10 7 10 15 0 8 -4 15 -10 15 -5 0
-10 -7 -10 -15z"/>
<path d="M385 130 c-3 -5 -1 -10 4 -10 6 0 11 5 11 10 0 6 -2 10 -4 10 -3 0
-8 -4 -11 -10z"/>
<path d="M460 130 c0 -5 5 -10 10 -10 6 0 10 5 10 10 0 6 -4 10 -10 10 -5 0
-10 -4 -10 -10z"/>
<path d="M745 130 c6 -8 10 -18 10 -22 0 -14 15 -20 15 -6 0 9 -8 22 -17 29
-15 12 -16 12 -8 -1z"/>
<path d="M342 95 c-11 -13 -9 -15 8 -15 11 0 20 7 20 15 0 19 -11 19 -28 0z"/>
<path d="M460 95 c0 -8 5 -15 10 -15 6 0 10 7 10 15 0 8 -4 15 -10 15 -5 0
-10 -7 -10 -15z"/>
<path d="M536 101 c-4 -7 -5 -15 -2 -18 9 -9 19 4 14 18 -4 11 -6 11 -12 0z"/>
<path d="M380 85 c0 -8 5 -15 10 -15 6 0 10 7 10 15 0 8 -4 15 -10 15 -5 0
-10 -7 -10 -15z"/>
<path d="M340 55 c0 -8 -6 -15 -12 -16 -22 -1 34 -20 67 -22 16 -2 35 -6 42
-10 6 -4 14 -1 16 5 4 10 6 10 6 1 1 -18 21 -16 21 2 0 12 -13 15 -60 15 -33
0 -60 4 -60 10 0 5 7 7 15 4 8 -4 15 -1 15 6 0 6 -4 9 -9 5 -5 -3 -12 -1 -16
5 -9 15 -25 12 -25 -5z"/>
<path d="M605 60 c-3 -5 -1 -10 4 -10 6 0 11 5 11 10 0 6 -2 10 -4 10 -3 0 -8
-4 -11 -10z"/>
<path d="M490 15 c0 -8 7 -15 15 -15 8 0 15 7 15 15 0 8 -7 15 -15 15 -8 0
-15 -7 -15 -15z"/>
<path d="M530 15 c0 -8 5 -15 10 -15 6 0 10 7 10 15 0 8 -4 15 -10 15 -5 0
-10 -7 -10 -15z"/>
</g>
</svg>
